<svg width="153" height="31" viewBox="0 0 153 31" fill="none" xmlns="http://www.w3.org/2000/svg">
<path d="M14.805 0H132.991C141.169 0 147.796 6.93846 147.796 15.4992L147.755 24.5676C147.763 25.2737 148.15 26.1345 148.766 27.2957C148.769 27.3016 148.775 27.3103 148.778 27.3162C150.093 29.5016 152.195 30.304 153 30.5607C151.93 30.8583 148.633 31.3865 146.127 30.5461C144.402 29.9684 143.097 28.918 142.858 28.7284C142.495 28.4395 142.175 28.1536 141.899 27.8793C139.421 29.8371 136.336 30.9984 132.991 30.9984H14.805C6.6277 30.9984 0 24.0599 0 15.4992C0 6.93846 6.6277 0 14.805 0Z" fill="black"/>
<path d="M12.1524 11V15.1306H17.2169V11H18.3666V20.5507H17.2169V16.202H12.1524V20.5507H11V11H12.1524Z" fill="white"/>
<path d="M19.6613 17.1352V17.1297C19.6613 14.9981 20.8388 13.5347 22.6554 13.5347C24.4719 13.5347 25.5769 14.9318 25.5769 16.9972V17.4196H20.7858C20.8109 18.8361 21.5671 19.6644 22.7502 19.6644C23.5957 19.6644 24.1901 19.2281 24.3798 18.6373L24.3994 18.5765H25.4932L25.4792 18.6428C25.2616 19.7804 24.1761 20.6805 22.7223 20.6805C20.8109 20.6833 19.6613 19.2999 19.6613 17.1352ZM20.8054 16.5195H24.444C24.3352 15.1831 23.6181 14.5536 22.647 14.5536C21.6815 14.5536 20.9281 15.2356 20.8054 16.5195Z" fill="white"/>
<path d="M26.7405 22.8149V21.8762C26.8353 21.8955 26.9637 21.9148 27.0976 21.9148C27.8008 21.9148 28.1914 21.7298 28.4593 20.9484L28.5933 20.5591L26.1238 13.6673H27.3125L29.1485 19.3994H29.1737L31.0153 13.6673H32.1845L29.5894 20.9816C29.1151 22.2986 28.5347 22.8674 27.332 22.8674C27.1172 22.8674 26.88 22.8398 26.7405 22.8149Z" fill="white"/>
<path d="M34.3445 19.1867L33.4097 22.4227H32.6173L33.1809 19.1867H34.3445Z" fill="white"/>
<path d="M39.8887 11V20.5507H38.7391V11H39.8887Z" fill="white"/>
<path d="M43.0558 11L42.121 14.236H41.3285L41.8922 11H43.0558Z" fill="white"/>
<path d="M45.4332 13.6672V14.6723H45.4583C45.7597 13.9903 46.4238 13.5347 47.2804 13.5347C48.1873 13.5347 48.8598 14.0179 49.1472 14.8573H49.1723C49.5434 14.0289 50.3219 13.5347 51.2567 13.5347C52.5738 13.5347 53.4248 14.4293 53.4248 15.7988V20.5507H52.3115V16.0611C52.3115 15.1141 51.8064 14.5536 50.9302 14.5536C50.0485 14.5536 49.4262 15.2356 49.4262 16.1743V20.548H48.3129V15.9369C48.3129 15.103 47.7771 14.5536 46.9512 14.5536C46.0694 14.5536 45.4276 15.2742 45.4276 16.2351V20.5507H44.3143V13.6672H45.4332Z" fill="white"/>
<path d="M58.6401 13.6672V14.8324H58.6652C58.8885 14.0372 59.4633 13.5347 60.2139 13.5347C60.4064 13.5347 60.571 13.5678 60.6603 13.5816V14.6999C60.571 14.6668 60.3339 14.6336 60.066 14.6336C59.2038 14.6336 58.6401 15.2549 58.6401 16.3013V20.5507H57.5268V13.6672H58.6401Z" fill="white"/>
<path d="M61.5307 18.1348V13.6673H62.6441V17.9305C62.6441 19.0488 63.1491 19.6645 64.1732 19.6645C65.2224 19.6645 65.906 18.8914 65.906 17.7179V13.6673H67.0194V20.5508H65.906V19.5706H65.8809C65.5237 20.214 64.8457 20.6834 63.8356 20.6834C62.3762 20.6834 61.5307 19.7032 61.5307 18.1348Z" fill="white"/>
<path d="M69.5756 13.6672V14.6474H69.6007C69.9579 14.0041 70.6359 13.5347 71.646 13.5347C73.1026 13.5347 73.9481 14.5149 73.9481 16.0832V20.5507H72.8347V16.2875C72.8347 15.1693 72.3297 14.5536 71.3056 14.5536C70.2564 14.5536 69.5728 15.3267 69.5728 16.5001V20.5507H68.4594V13.6672H69.5756Z" fill="white"/>
<path d="M76.4759 13.6672V14.6474H76.5011C76.8582 14.0041 77.5363 13.5347 78.5464 13.5347C80.0058 13.5347 80.8484 14.5149 80.8484 16.0832V20.5507H79.7351V16.2875C79.7351 15.1693 79.23 14.5536 78.206 14.5536C77.1568 14.5536 76.4732 15.3267 76.4732 16.5001V20.5507H75.3598V13.6672H76.4759Z" fill="white"/>
<path d="M82.196 11.7815C82.196 11.3784 82.5085 11.0609 82.8936 11.0609C83.2843 11.0609 83.5912 11.3784 83.5912 11.7815C83.5912 12.1791 83.2843 12.5022 82.8936 12.5022C82.5085 12.5022 82.196 12.1764 82.196 11.7815ZM83.4489 13.6674V20.5508H82.3355V13.6674H83.4489Z" fill="white"/>
<path d="M86.0777 13.6672V14.6474H86.1028C86.4599 14.0041 87.138 13.5347 88.1481 13.5347C89.6075 13.5347 90.4502 14.5149 90.4502 16.0832V20.5507H89.3368V16.2875C89.3368 15.1693 88.8318 14.5536 87.8077 14.5536C86.7585 14.5536 86.0749 15.3267 86.0749 16.5001V20.5507H84.9615V13.6672H86.0777Z" fill="white"/>
<path d="M91.781 21.1777L91.767 21.1169H92.886L92.9111 21.1777C93.1231 21.6747 93.7566 21.9784 94.6634 21.9784C95.8326 21.9784 96.4995 21.3102 96.4995 20.2444V19.3636H96.4744C96.0781 20.1257 95.3108 20.6144 94.3565 20.6144C92.6823 20.6144 91.5354 19.2173 91.5354 17.0663V17.0608C91.5354 14.9237 92.6934 13.5321 94.3816 13.5321C95.322 13.5321 96.0642 14.0622 96.4716 14.8298H96.4967V13.6646H97.61V20.3576C97.61 21.9535 96.4772 23 94.6746 23C93.0339 23 91.9986 22.1993 91.781 21.1777ZM96.4995 17.0691V17.0636C96.4995 15.5477 95.7266 14.5565 94.5992 14.5565C93.4161 14.5565 92.6739 15.5367 92.6739 17.0636V17.0691C92.6739 18.6319 93.4161 19.5983 94.5992 19.5983C95.7321 19.5983 96.4995 18.5988 96.4995 17.0691Z" fill="white"/>
<path d="M102.909 11V20.5507H101.796V11H102.909Z" fill="white"/>
<path d="M104.142 18.6043V18.5905C104.142 17.4198 105.024 16.6853 106.553 16.5914L108.459 16.4782V15.9011C108.459 15.0618 107.929 14.551 107 14.551C106.143 14.551 105.604 14.9734 105.476 15.5891L105.462 15.6499H104.388L104.393 15.5781C104.488 14.446 105.443 13.5321 107.008 13.5321C108.582 13.5321 109.567 14.4129 109.567 15.7879V20.5481H108.453V19.4299H108.428C108.038 20.1837 107.24 20.6807 106.35 20.6807C105.032 20.6834 104.142 19.8551 104.142 18.6043ZM106.606 19.6839C107.655 19.6839 108.462 18.9356 108.462 17.9361V17.3728L106.684 17.486C105.794 17.5385 105.284 17.9499 105.284 18.5905V18.6043C105.281 19.267 105.805 19.6839 106.606 19.6839Z" fill="white"/>
<path d="M111.325 18.7974V14.6198H110.354V13.6672H111.325V11.8062H112.474V13.6672H113.741V14.6198H112.474V18.7891C112.474 19.5236 112.787 19.7279 113.381 19.7279C113.515 19.7279 113.643 19.7086 113.738 19.7003V20.6336C113.599 20.6529 113.362 20.6805 113.144 20.6805C111.927 20.6833 111.325 20.1145 111.325 18.7974Z" fill="white"/>
<path d="M114.606 17.1352V17.1297C114.606 14.9981 115.784 13.5347 117.6 13.5347C119.417 13.5347 120.522 14.9318 120.522 16.9972V17.4196H115.731C115.756 18.8361 116.512 19.6644 117.695 19.6644C118.541 19.6644 119.135 19.2281 119.325 18.6373L119.344 18.5765H120.438L120.424 18.6428C120.206 19.7804 119.121 20.6805 117.667 20.6805C115.759 20.6833 114.606 19.2999 114.606 17.1352ZM115.75 16.5195H119.389C119.28 15.1831 118.563 14.5536 117.592 14.5536C116.626 14.5536 115.873 15.2356 115.75 16.5195Z" fill="white"/>
<path d="M124.283 14.766C124.283 14.3435 124.604 14.0122 125.011 14.0122C125.419 14.0122 125.74 14.3435 125.74 14.766C125.74 15.1884 125.419 15.5198 125.011 15.5198C124.604 15.5198 124.283 15.1884 124.283 14.766ZM124.283 19.8879C124.283 19.4654 124.604 19.1341 125.011 19.1341C125.419 19.1341 125.74 19.4654 125.74 19.8879C125.74 20.3103 125.419 20.6417 125.011 20.6417C124.604 20.6417 124.283 20.3131 124.283 19.8879Z" fill="white"/>
<path d="M131.273 16.1412V17.2125H127.179V16.1412H131.273Z" fill="white"/>
<path d="M133.249 16.9309C133.249 14.5757 133.818 12.6429 135.065 11H136C135.079 12.1044 134.382 14.7192 134.382 16.9309C134.382 19.1426 135.079 21.7629 136 22.8673H135.065C133.818 21.2327 133.249 19.2861 133.249 16.9309Z" fill="white"/>
</svg>
