<svg width="23" height="23" viewBox="0 0 23 23" fill="none" xmlns="http://www.w3.org/2000/svg">
<circle cx="11.5" cy="11.5" r="11.5" fill="#FFEC00"/>
<g clip-path="url(#clip0_2_992)">
<path d="M4.92847 11.7181V11.5H8.08658V11.5948C8.08658 13.4676 9.37626 14.9754 11.4999 14.9991C13.619 14.9754 14.9132 13.4629 14.9132 11.5948V11.5H18.0713V11.7181C18.0713 15.4827 15.4646 18.0762 11.4999 18.0762C7.53516 18.0714 4.92847 15.4827 4.92847 11.7181Z" fill="black"/>
</g>
<circle cx="11.5" cy="11.5" r="11.5" fill="#FFEC00"/>
<g clip-path="url(#clip1_2_992)">
<path d="M4.92847 11.7181V11.5H8.08658V11.5948C8.08658 13.4676 9.37626 14.9754 11.4999 14.9991C13.619 14.9754 14.9132 13.4629 14.9132 11.5948V11.5H18.0713V11.7181C18.0713 15.4827 15.4646 18.0762 11.4999 18.0762C7.53516 18.0714 4.92847 15.4827 4.92847 11.7181Z" fill="black"/>
</g>
<circle cx="11.5" cy="11.5" r="11.5" fill="#FFEC00"/>
<g clip-path="url(#clip2_2_992)">
<path d="M4.92847 11.7181V11.5H8.08658V11.5948C8.08658 13.4676 9.37626 14.9754 11.4999 14.9991C13.619 14.9754 14.9132 13.4629 14.9132 11.5948V11.5H18.0713V11.7181C18.0713 15.4827 15.4646 18.0762 11.4999 18.0762C7.53516 18.0714 4.92847 15.4827 4.92847 11.7181Z" fill="black"/>
</g>
<defs>
<clipPath id="clip0_2_992">
<rect width="13.1429" height="6.57143" fill="white" transform="translate(4.92847 11.5)"/>
</clipPath>
<clipPath id="clip1_2_992">
<rect width="13.1429" height="6.57143" fill="white" transform="translate(4.92847 11.5)"/>
</clipPath>
<clipPath id="clip2_2_992">
<rect width="13.1429" height="6.57143" fill="white" transform="translate(4.92847 11.5)"/>
</clipPath>
</defs>
</svg>
