<svg width="188" height="73" viewBox="0 0 188 73" fill="none" xmlns="http://www.w3.org/2000/svg">
<path d="M0.0158551 53.2437V72.7217H2.24194V63.8453C2.24194 61.0627 2.21376 59.0036 2.01651 57.028L8.38481 67.0731H9.90644L16.3874 57.028C16.2466 59.1149 16.162 61.2019 16.162 63.8453V72.7217H18.3881V53.2437H16.3874L9.23016 64.5688L2.18558 53.2437H0.0158551Z" fill="black"/>
<path d="M31.8686 73C34.6582 73 37.0815 71.9704 38.8286 70.1618C40.5756 68.3809 41.5619 65.9044 41.5619 63.0105C41.5619 60.1445 40.5756 57.668 38.8286 55.8593C37.0815 54.0785 34.6582 53.0211 31.8686 53.0211C29.0789 53.0211 26.6556 54.0785 24.9367 55.8593C23.2178 57.668 22.2034 60.1445 22.2034 63.0105C22.2034 65.9044 23.2178 68.3809 24.9367 70.1618C26.6556 71.9704 29.0789 73 31.8686 73ZM31.8686 70.8296C30.4315 70.8296 29.1634 70.4957 28.0645 69.8279C25.8384 68.4922 24.514 66.0435 24.514 63.0105C24.514 61.5079 24.824 60.1723 25.4721 58.9758C26.7119 56.6384 29.0225 55.1915 31.8686 55.1915C33.3056 55.1915 34.5737 55.5254 35.6726 56.1932C37.8987 57.5567 39.2513 60.0053 39.2513 63.0105C39.2513 64.541 38.9413 65.8766 38.2932 67.0453C37.0252 69.4105 34.7146 70.8296 31.8686 70.8296Z" fill="black"/>
<path d="M53.5139 73C56.3035 73 58.7269 71.9704 60.4739 70.1618C62.221 68.3809 63.2072 65.9044 63.2072 63.0105C63.2072 60.1445 62.221 57.668 60.4739 55.8593C58.7269 54.0785 56.3035 53.0211 53.5139 53.0211C50.7242 53.0211 48.3009 54.0785 46.582 55.8593C44.8632 57.668 43.8487 60.1445 43.8487 63.0105C43.8487 65.9044 44.8632 68.3809 46.582 70.1618C48.3009 71.9704 50.7242 73 53.5139 73ZM53.5139 70.8296C52.0768 70.8296 50.8088 70.4957 49.7098 69.8279C47.4837 68.4922 46.1594 66.0435 46.1594 63.0105C46.1594 61.5079 46.4693 60.1723 47.1174 58.9758C48.3573 56.6384 50.6679 55.1915 53.5139 55.1915C54.951 55.1915 56.219 55.5254 57.318 56.1932C59.544 57.5567 60.8966 60.0053 60.8966 63.0105C60.8966 64.541 60.5866 65.8766 59.9385 67.0453C58.6705 69.4105 56.3599 70.8296 53.5139 70.8296Z" fill="black"/>
<path d="M67.0157 53.2437V72.7217H74.4829C76.2582 72.7217 77.8643 72.3043 79.2451 71.4696C82.0066 69.8279 83.6973 66.7948 83.6973 62.9827C83.6973 61.0627 83.3028 59.3932 82.5138 57.9184C80.9076 54.9967 78.0616 53.2437 74.4829 53.2437H67.0157ZM74.3421 55.3863C75.7228 55.3863 76.9345 55.6923 78.0052 56.3323C80.1186 57.5845 81.3866 59.9497 81.3866 62.9827C81.3866 64.5131 81.0767 65.8209 80.4849 66.9618C79.2733 69.2435 77.0753 70.5791 74.3421 70.5791H69.2418V55.3863H74.3421Z" fill="black"/>
<path d="M94.9239 53.2437V72.7217H97.15V63.8453C97.15 61.0627 97.1218 59.0036 96.9245 57.028L103.293 67.0731H104.814L111.295 57.028C111.155 59.1149 111.07 61.2019 111.07 63.8453V72.7217H113.296V53.2437H111.295L104.138 64.5688L97.0936 53.2437H94.9239Z" fill="black"/>
<path d="M124.015 53.2437L116.435 72.7217H118.718L120.775 67.3514H129.566L131.595 72.7217H134.018L126.523 53.2437H124.015ZM123.508 60.2558C124.071 58.7254 124.635 57.0558 125.17 55.4697C125.649 56.9445 126.354 58.9201 126.805 60.1166L128.749 65.2088H121.592L123.508 60.2558Z" fill="black"/>
<path d="M137.141 53.2437V72.7217H139.367V65.0418H144.721L149.145 72.7217H151.822L147.088 64.7079C149.427 63.9288 151.033 61.8419 151.033 59.2819C151.033 58.141 150.751 57.1115 150.216 56.1932C149.117 54.3845 147.173 53.2437 144.89 53.2437H137.141ZM145.257 62.8992H139.367V55.3863H144.609C147.004 55.3863 148.751 57.028 148.751 59.2819C148.751 61.3966 147.286 62.8992 145.257 62.8992Z" fill="black"/>
<path d="M155.292 53.2437V72.7217H157.518V66.2383L160.984 62.8714L168.508 72.7217H171.297L162.562 61.3688L171.015 53.2437H168.029L157.518 63.5114V53.2437H155.292Z" fill="black"/>
<path d="M180.072 73C181.453 73 182.693 72.7496 183.735 72.2765C185.82 71.3026 187.032 69.4939 187.032 67.2401C187.032 64.2627 184.581 62.6766 180.664 61.7862C177.395 61.0906 176.071 60.1723 176.071 58.308C176.071 56.4158 177.79 55.0802 180.241 55.0802C182.383 55.0802 183.961 56.1654 185.172 58.0297L186.75 56.4715C185.398 54.3289 183.341 53.0211 180.298 53.0211C179.086 53.0211 177.987 53.2437 177.001 53.7167C175.056 54.635 173.816 56.3045 173.816 58.3358C173.816 61.4801 175.874 63.0105 179.706 63.901C182.89 64.6523 184.778 65.5427 184.778 67.6574C184.778 69.2713 182.157 70.9409 180.241 70.9409C177.959 70.9409 176.183 70.0505 174.408 67.574L172.858 69.2713C174.577 71.7478 177.001 73 180.072 73Z" fill="black"/>
<path d="M7.7609 39.314C12.4447 39.314 15.5218 36.4098 15.5218 32.188V31.946H11.7911V32.0536C11.7911 34.151 10.2662 35.8451 7.7609 35.872C5.25563 35.8451 3.73068 34.151 3.73068 32.0536V31.946H0V32.188C0 36.4098 3.07713 39.314 7.7609 39.314Z" fill="black"/>
<path d="M38.5967 31.946C33.9129 31.946 30.8358 34.8502 30.8358 39.072V39.314H34.5664V39.2065C34.5664 37.109 36.0914 35.4149 38.5967 35.388C41.1019 35.4149 42.6269 37.109 42.6269 39.2065V39.314H46.3576V39.072C46.3576 34.8502 43.2804 31.946 38.5967 31.946Z" fill="black"/>
<path d="M68.4249 0.295796L68.7516 26.2183H72.9997L73.3265 0.295796H68.4249ZM70.8757 39.314C75.5595 39.314 78.6366 36.4098 78.6366 32.188V31.946H74.9059V32.0536C74.9059 34.151 73.381 35.8451 70.8757 35.872C68.3704 35.8451 66.8455 34.151 66.8455 32.0536V31.946H63.1148V32.188C63.1148 36.4098 66.1919 39.314 70.8757 39.314Z" fill="black"/>
<path d="M102.147 0.295796L102.474 26.2183H106.722L107.049 0.295796H102.147ZM104.598 31.946C99.9142 31.946 96.8371 34.8502 96.8371 39.072V39.314H100.568V39.2065C100.568 37.109 102.093 35.4149 104.598 35.388C107.103 35.4149 108.628 37.109 108.628 39.2065V39.314H112.359V39.072C112.359 34.8502 109.282 31.946 104.598 31.946Z" fill="black"/>
<path d="M136.278 24.6318V27.1057H141.043V25.3578C141.043 22.5343 142.024 21.0284 145.482 19.0116C148.968 16.9411 151.173 13.9562 151.173 9.76128V9.73439C151.173 4.16804 146.462 0 139.627 0C131.975 0 128.217 4.59829 127.782 10.084L127.755 10.4335H132.411L132.438 10.1646C132.792 6.58819 135.325 4.19493 139.437 4.19493C143.467 4.19493 146.108 6.61508 146.108 9.9764V10.0033C146.108 12.8537 144.883 14.5478 141.724 16.457C137.993 18.6621 136.278 21.0822 136.278 24.6318ZM138.701 39.1527C143.385 39.1527 146.462 36.2485 146.462 32.0267V31.7847H142.732V31.8922C142.732 33.9897 141.207 35.6838 138.701 35.7107C136.196 35.6838 134.671 33.9897 134.671 31.8922V31.7847H130.941V32.0267C130.941 36.2485 134.018 39.1527 138.701 39.1527Z" fill="black"/>
<path d="M173.105 24.6318V27.1057H177.87V25.3578C177.87 22.5343 178.85 21.0284 182.309 19.0116C185.794 16.9411 188 13.9562 188 9.76128V9.73439C188 4.16804 183.289 0 176.454 0C168.802 0 165.044 4.59829 164.608 10.084L164.581 10.4335H169.238L169.265 10.1646C169.619 6.58819 172.151 4.19493 176.263 4.19493C180.294 4.19493 182.935 6.61508 182.935 9.9764V10.0033C182.935 12.8537 181.71 14.5478 178.551 16.457C174.82 18.6621 173.105 21.0822 173.105 24.6318ZM175.528 31.7847C170.844 31.7847 167.767 34.6888 167.767 38.9107V39.1527H171.498V39.0451C171.498 36.9476 173.023 35.2535 175.528 35.2267C178.033 35.2535 179.558 36.9476 179.558 39.0451V39.1527H183.289V38.9107C183.289 34.6888 180.212 31.7847 175.528 31.7847Z" fill="black"/>
</svg>
