<svg width="107" height="42" viewBox="0 0 107 42" fill="none" xmlns="http://www.w3.org/2000/svg">
<path d="M0.00902391 30.6333V41.8399H1.276V36.7329C1.276 35.132 1.25996 33.9473 1.1477 32.8106L4.7722 38.59H5.63824L9.3269 32.8106C9.24671 34.0113 9.1986 35.212 9.1986 36.7329V41.8399H10.4656V30.6333H9.3269L5.25333 37.1492L1.24392 30.6333H0.00902391Z" fill="#1D1D1B"/>
<path d="M18.138 42C19.7257 42 21.1049 41.4076 22.0993 40.367C23.0936 39.3424 23.6549 37.9176 23.6549 36.2526C23.6549 34.6037 23.0936 33.1788 22.0993 32.1382C21.1049 31.1136 19.7257 30.5053 18.138 30.5053C16.5502 30.5053 15.171 31.1136 14.1927 32.1382C13.2144 33.1788 12.637 34.6037 12.637 36.2526C12.637 37.9176 13.2144 39.3424 14.1927 40.367C15.171 41.4076 16.5502 42 18.138 42ZM18.138 40.7513C17.32 40.7513 16.5983 40.5592 15.9729 40.1749C14.7059 39.4065 13.9521 37.9977 13.9521 36.2526C13.9521 35.3881 14.1285 34.6197 14.4974 33.9313C15.2031 32.5865 16.5182 31.754 18.138 31.754C18.9559 31.754 19.6776 31.9461 20.303 32.3303C21.57 33.1148 22.3398 34.5236 22.3398 36.2526C22.3398 37.1332 22.1634 37.9016 21.7945 38.574C21.0728 39.9348 19.7578 40.7513 18.138 40.7513Z" fill="#1D1D1B"/>
<path d="M30.4574 42C32.0451 42 33.4243 41.4076 34.4187 40.367C35.413 39.3424 35.9743 37.9176 35.9743 36.2526C35.9743 34.6037 35.413 33.1788 34.4187 32.1382C33.4243 31.1136 32.0451 30.5053 30.4574 30.5053C28.8696 30.5053 27.4904 31.1136 26.5121 32.1382C25.5338 33.1788 24.9565 34.6037 24.9565 36.2526C24.9565 37.9176 25.5338 39.3424 26.5121 40.367C27.4904 41.4076 28.8696 42 30.4574 42ZM30.4574 40.7513C29.6395 40.7513 28.9178 40.5592 28.2923 40.1749C27.0253 39.4065 26.2715 37.9977 26.2715 36.2526C26.2715 35.3881 26.448 34.6197 26.8168 33.9313C27.5225 32.5865 28.8376 31.754 30.4574 31.754C31.2753 31.754 31.997 31.9461 32.6225 32.3303C33.8894 33.1148 34.6592 34.5236 34.6592 36.2526C34.6592 37.1332 34.4828 37.9016 34.114 38.574C33.3923 39.9348 32.0772 40.7513 30.4574 40.7513Z" fill="#1D1D1B"/>
<path d="M38.1419 30.6333V41.8399H42.3919C43.4023 41.8399 44.3164 41.5998 45.1022 41.1195C46.6739 40.1749 47.6362 38.4299 47.6362 36.2366C47.6362 35.132 47.4117 34.1714 46.9626 33.3229C46.0485 31.6419 44.4287 30.6333 42.3919 30.6333H38.1419ZM42.3117 31.8661C43.0975 31.8661 43.7872 32.0422 44.3966 32.4104C45.5994 33.1308 46.3211 34.4916 46.3211 36.2366C46.3211 37.1171 46.1447 37.8696 45.8079 38.526C45.1183 39.8387 43.8674 40.6072 42.3117 40.6072H39.4089V31.8661H42.3117Z" fill="#1D1D1B"/>
<path d="M54.0258 30.6333V41.8399H55.2928V36.7329C55.2928 35.132 55.2768 33.9473 55.1645 32.8106L58.789 38.59H59.655L63.3437 32.8106C63.2635 34.0113 63.2154 35.212 63.2154 36.7329V41.8399H64.4824V30.6333H63.3437L59.2701 37.1492L55.2607 30.6333H54.0258Z" fill="#1D1D1B"/>
<path d="M70.5831 30.6333L66.2689 41.8399H67.568L68.7387 38.7501H73.7425L74.8972 41.8399H76.2764L72.0104 30.6333H70.5831ZM70.2944 34.6677C70.6151 33.7872 70.9359 32.8266 71.2406 31.9141C71.5132 32.7626 71.9142 33.8993 72.1708 34.5877L73.2774 37.5174H69.2038L70.2944 34.6677Z" fill="#1D1D1B"/>
<path d="M78.0538 30.6333V41.8399H79.3208V37.4213H82.368L84.8859 41.8399H86.4095L83.7151 37.2292C85.0463 36.7809 85.9604 35.5802 85.9604 34.1074C85.9604 33.451 85.8 32.8587 85.4953 32.3303C84.8698 31.2897 83.7632 30.6333 82.4642 30.6333H78.0538ZM82.6727 36.1886H79.3208V31.8661H82.3038C83.667 31.8661 84.6614 32.8106 84.6614 34.1074C84.6614 35.3241 83.8274 36.1886 82.6727 36.1886Z" fill="#1D1D1B"/>
<path d="M88.3842 30.6333V41.8399H89.6512V38.1097L91.6238 36.1726L95.9059 41.8399H97.4936L92.5219 35.3081L97.3332 30.6333H95.6332L89.6512 36.5408V30.6333H88.3842Z" fill="#1D1D1B"/>
<path d="M102.488 42C103.274 42 103.979 41.8559 104.573 41.5838C105.76 41.0234 106.449 39.9828 106.449 38.6861C106.449 36.9731 105.054 36.0605 102.825 35.5482C100.964 35.148 100.21 34.6197 100.21 33.5471C100.21 32.4584 101.189 31.69 102.584 31.69C103.803 31.69 104.701 32.3143 105.391 33.387L106.289 32.4904C105.519 31.2577 104.348 30.5053 102.616 30.5053C101.927 30.5053 101.301 30.6333 100.74 30.9055C99.6331 31.4338 98.9275 32.3944 98.9275 33.5631C98.9275 35.3721 100.098 36.2526 102.279 36.7649C104.092 37.1972 105.166 37.7095 105.166 38.9262C105.166 39.8547 103.675 40.8153 102.584 40.8153C101.285 40.8153 100.275 40.303 99.2643 38.8782L98.3822 39.8547C99.3605 41.2796 100.74 42 102.488 42Z" fill="#1D1D1B"/>
<path d="M4.41711 22.619C7.08287 22.619 8.83421 20.9481 8.83421 18.5191V18.3799H6.7109V18.4418C6.7109 19.6485 5.84298 20.6232 4.41711 20.6387C2.99123 20.6232 2.12331 19.6485 2.12331 18.4418V18.3799H0V18.5191C0 20.9481 1.75134 22.619 4.41711 22.619Z" fill="#1D1D1B"/>
<path d="M21.9672 18.3799C19.3015 18.3799 17.5501 20.0508 17.5501 22.4798V22.619H19.6735V22.5571C19.6735 21.3504 20.5414 20.3757 21.9672 20.3602C23.3931 20.3757 24.261 21.3504 24.261 22.5571V22.619H26.3844V22.4798C26.3844 20.0508 24.633 18.3799 21.9672 18.3799Z" fill="#1D1D1B"/>
<path d="M38.9439 0.170184L39.1299 15.0845H41.5477L41.7337 0.170184H38.9439ZM40.3388 22.619C43.0046 22.619 44.7559 20.9481 44.7559 18.5191V18.3799H42.6326V18.4418C42.6326 19.6485 41.7647 20.6232 40.3388 20.6387C38.9129 20.6232 38.045 19.6485 38.045 18.4418V18.3799H35.9217V18.5191C35.9217 20.9481 37.6731 22.619 40.3388 22.619Z" fill="#1D1D1B"/>
<path d="M58.1369 0.170184L58.3229 15.0845H60.7407L60.9267 0.170184H58.1369ZM59.5318 18.3799C56.866 18.3799 55.1147 20.0508 55.1147 22.4798V22.619H57.238V22.5571C57.238 21.3504 58.1059 20.3757 59.5318 20.3602C60.9577 20.3757 61.8256 21.3504 61.8256 22.5571V22.619H63.9489V22.4798C63.9489 20.0508 62.1976 18.3799 59.5318 18.3799Z" fill="#1D1D1B"/>
<path d="M77.5624 14.1717V15.5951H80.2747V14.5894C80.2747 12.9649 80.8326 12.0985 82.8009 10.9382C84.7848 9.74691 86.0402 8.0296 86.0402 5.61608V5.60061C86.0402 2.39805 83.3589 0 79.4687 0C75.1136 0 72.9748 2.64559 72.7268 5.80173L72.7113 6.00286H75.3616L75.3771 5.84815C75.5786 3.79047 77.02 2.41352 79.3603 2.41352C81.654 2.41352 83.1574 3.80594 83.1574 5.73985V5.75532C83.1574 7.39528 82.46 8.36997 80.6621 9.46843C78.5388 10.7371 77.5624 12.1295 77.5624 14.1717ZM78.9418 22.5262C81.6076 22.5262 83.3589 20.8553 83.3589 18.4263V18.2871H81.2356V18.3489C81.2356 19.5557 80.3677 20.5304 78.9418 20.5459C77.5159 20.5304 76.648 19.5557 76.648 18.3489V18.2871H74.5247V18.4263C74.5247 20.8553 76.276 22.5262 78.9418 22.5262Z" fill="#1D1D1B"/>
<path d="M98.5222 14.1717V15.5951H101.235V14.5894C101.235 12.9649 101.792 12.0985 103.761 10.9382C105.745 9.74691 107 8.0296 107 5.61608V5.60061C107 2.39805 104.319 0 100.429 0C96.0735 0 93.9347 2.64559 93.6867 5.80173L93.6712 6.00286H96.3214L96.3369 5.84815C96.5384 3.79047 97.9798 2.41352 100.32 2.41352C102.614 2.41352 104.117 3.80594 104.117 5.73985V5.75532C104.117 7.39528 103.42 8.36997 101.622 9.46843C99.4987 10.7371 98.5222 12.1295 98.5222 14.1717ZM99.9016 18.2871C97.2359 18.2871 95.4845 19.958 95.4845 22.387V22.5262H97.6078V22.4643C97.6078 21.2576 98.4758 20.2829 99.9016 20.2674C101.327 20.2829 102.195 21.2576 102.195 22.4643V22.5262H104.319V22.387C104.319 19.958 102.567 18.2871 99.9016 18.2871Z" fill="#1D1D1B"/>
</svg>
